<svg xmlns="http://www.w3.org/2000/svg" xmlns:xlink="http://www.w3.org/1999/xlink" zoomAndPan="magnify" preserveAspectRatio="xMidYMid meet" version="1.0" viewBox="20.21 110.47 326.32 142.18"><defs><g/><clipPath id="01cc00d724"><path d="M 24.171875 204.121094 L 45.921875 204.121094 L 45.921875 225.871094 L 24.171875 225.871094 Z M 24.171875 204.121094 " clip-rule="nonzero"/></clipPath><clipPath id="981fe7bf67"><path d="M 20.207031 237.652344 L 35.207031 237.652344 L 35.207031 252.652344 L 20.207031 252.652344 Z M 20.207031 237.652344 " clip-rule="nonzero"/></clipPath><clipPath id="6b3833a10b"><path d="M 281.109375 125.25 L 302.859375 125.25 L 302.859375 147 L 281.109375 147 Z M 281.109375 125.25 " clip-rule="nonzero"/></clipPath><clipPath id="6b10829836"><path d="M 269.886719 110.472656 L 284.886719 110.472656 L 284.886719 125.472656 L 269.886719 125.472656 Z M 269.886719 110.472656 " clip-rule="nonzero"/></clipPath><clipPath id="ddb0aace2e"><path d="M 216.078125 136.066406 L 227.328125 136.066406 L 227.328125 147.316406 L 216.078125 147.316406 Z M 216.078125 136.066406 " clip-rule="nonzero"/></clipPath><clipPath id="fbca327c06"><path d="M 331.519531 170.484375 L 346.519531 170.484375 L 346.519531 185.484375 L 331.519531 185.484375 Z M 331.519531 170.484375 " clip-rule="nonzero"/></clipPath><clipPath id="0214d3bc9f"><path d="M 309.289062 237.652344 L 324.289062 237.652344 L 324.289062 252.652344 L 309.289062 252.652344 Z M 309.289062 237.652344 " clip-rule="nonzero"/></clipPath><clipPath id="a31ac97fb9"><path d="M 104.714844 126.105469 L 119.714844 126.105469 L 119.714844 141.105469 L 104.714844 141.105469 Z M 104.714844 126.105469 " clip-rule="nonzero"/></clipPath></defs><g fill="#62b6cb" fill-opacity="1"><g transform="translate(56.892401, 219.531329)"><g><path d="M 62.453125 -12.210938 C 59.464844 -14.492188 58.851562 -16.425781 58.851562 -19.675781 L 58.851562 -25.472656 C 58.851562 -35.132812 53.054688 -42.863281 44.972656 -42.863281 C 40.054688 -42.863281 37.066406 -38.03125 35.574219 -33.730469 C 33.289062 -39.175781 28.808594 -42.863281 23.277344 -42.863281 C 20.378906 -42.863281 18.269531 -40.667969 16.601562 -37.859375 L 16.953125 -40.582031 C 17.128906 -41.722656 18.007812 -43.128906 16.160156 -42.777344 C 12.824219 -42.074219 9.3125 -36.363281 0.878906 -36.363281 C 0 -36.363281 -0.351562 -35.308594 0.527344 -34.609375 C 3.601562 -32.234375 4.128906 -30.304688 4.128906 -27.054688 L 4.128906 -19.675781 C 4.128906 -16.425781 3.601562 -14.492188 0.527344 -12.210938 C -0.351562 -11.507812 0 -10.363281 0.878906 -10.363281 L 18.007812 -10.363281 C 19.851562 -10.363281 19.851562 -11.859375 18.886719 -12.5625 C 16.425781 -14.40625 15.195312 -20.554688 15.8125 -30.128906 C 17.039062 -34.167969 18.535156 -38.03125 20.289062 -38.03125 C 26 -38.03125 27.667969 -17.65625 22.046875 -12.5625 C 21.167969 -11.769531 21.082031 -10.363281 22.925781 -10.363281 L 40.40625 -10.363281 C 41.28125 -10.363281 41.632812 -11.507812 40.757812 -12.210938 C 37.683594 -14.492188 37.15625 -16.425781 37.15625 -19.675781 L 37.15625 -25.472656 C 37.15625 -26.789062 37.066406 -28.019531 36.804688 -29.25 C 38.121094 -34.257812 40.140625 -38.03125 42.335938 -38.03125 C 47.957031 -38.03125 49.453125 -17.65625 43.832031 -12.5625 C 42.953125 -11.769531 42.863281 -10.363281 44.707031 -10.363281 L 62.1875 -10.363281 C 63.066406 -10.363281 63.417969 -11.507812 62.453125 -12.210938 Z M 62.453125 -12.210938 "/></g></g></g><g fill="#62b6cb" fill-opacity="1"><g transform="translate(120.836653, 219.531329)"><g><path d="M 35.222656 -12.210938 C 32.148438 -14.492188 31.621094 -16.425781 31.621094 -19.675781 L 31.621094 -26.878906 C 31.621094 -36.363281 24.507812 -42.863281 15.109375 -42.863281 C 7.027344 -42.863281 2.636719 -38.824219 2.636719 -35.046875 C 2.636719 -29.953125 15.8125 -31.707031 13.964844 -36.011719 C 12.910156 -38.296875 12.910156 -40.40625 14.230469 -40.40625 C 17.390625 -40.40625 19.324219 -34.609375 19.324219 -29.511719 L 19.324219 -26.878906 C 17.390625 -29.425781 14.230469 -31.09375 10.714844 -31.09375 C 4.832031 -31.09375 0 -26.4375 0 -20.730469 C 0 -15.019531 4.832031 -10.363281 10.714844 -10.363281 C 14.230469 -10.363281 17.390625 -12.035156 19.324219 -14.582031 C 19.324219 -14.582031 21.167969 -10.363281 25.910156 -10.363281 L 34.871094 -10.363281 C 35.835938 -10.363281 36.101562 -11.507812 35.222656 -12.210938 Z M 14.582031 -15.109375 C 12.210938 -15.109375 10.277344 -17.65625 10.277344 -20.730469 C 10.277344 -23.804688 12.210938 -26.351562 14.582031 -26.351562 C 17.039062 -26.351562 18.972656 -23.804688 18.972656 -20.730469 C 18.972656 -17.65625 17.039062 -15.109375 14.582031 -15.109375 Z M 14.582031 -15.109375 "/></g></g></g><g fill="#62b6cb" fill-opacity="1"><g transform="translate(157.639725, 219.531329)"><g><path d="M 33.816406 -42.863281 L 12.648438 -42.863281 C 7.113281 -42.863281 1.667969 -40.316406 0.351562 -36.453125 C -2.460938 -28.546875 12.386719 -29.335938 11.59375 -34.871094 C 11.066406 -38.910156 15.109375 -41.28125 16.425781 -40.054688 C 19.324219 -37.332031 7.464844 -15.019531 3.601562 -12.5625 C 2.371094 -11.769531 2.285156 -10.363281 4.128906 -10.363281 L 30.832031 -10.363281 C 32.5 -10.363281 33.289062 -11.066406 33.289062 -12.824219 L 33.289062 -20.464844 C 33.289062 -21.433594 32.148438 -21.695312 31.445312 -20.816406 C 29.160156 -17.832031 26.789062 -12.824219 21.34375 -12.824219 L 19.851562 -12.824219 C 25.121094 -18.972656 28.898438 -37.417969 33.816406 -40.667969 C 34.957031 -41.457031 35.660156 -42.863281 33.816406 -42.863281 Z M 33.816406 -42.863281 "/></g></g></g><g fill="#62b6cb" fill-opacity="1"><g transform="translate(193.125264, 219.531329)"><g><path d="M 33.816406 -42.863281 L 12.648438 -42.863281 C 7.113281 -42.863281 1.667969 -40.316406 0.351562 -36.453125 C -2.460938 -28.546875 12.386719 -29.335938 11.59375 -34.871094 C 11.066406 -38.910156 15.109375 -41.28125 16.425781 -40.054688 C 19.324219 -37.332031 7.464844 -15.019531 3.601562 -12.5625 C 2.371094 -11.769531 2.285156 -10.363281 4.128906 -10.363281 L 30.832031 -10.363281 C 32.5 -10.363281 33.289062 -11.066406 33.289062 -12.824219 L 33.289062 -20.464844 C 33.289062 -21.433594 32.148438 -21.695312 31.445312 -20.816406 C 29.160156 -17.832031 26.789062 -12.824219 21.34375 -12.824219 L 19.851562 -12.824219 C 25.121094 -18.972656 28.898438 -37.417969 33.816406 -40.667969 C 34.957031 -41.457031 35.660156 -42.863281 33.816406 -42.863281 Z M 33.816406 -42.863281 "/></g></g></g><g fill="#62b6cb" fill-opacity="1"><g transform="translate(228.610804, 219.531329)"><g><path d="M 18.007812 -10.363281 C 19.851562 -10.363281 19.851562 -11.859375 18.886719 -12.5625 C 15.636719 -15.019531 14.582031 -24.945312 16.953125 -40.582031 C 17.128906 -41.722656 18.007812 -43.128906 16.160156 -42.777344 C 12.824219 -42.074219 9.3125 -36.363281 0.878906 -36.363281 C 0 -36.363281 -0.351562 -35.308594 0.527344 -34.609375 C 3.601562 -32.234375 4.128906 -30.304688 4.128906 -27.054688 L 4.128906 -19.675781 C 4.128906 -16.425781 3.601562 -14.492188 0.527344 -12.210938 C -0.351562 -11.507812 0 -10.363281 0.878906 -10.363281 Z M 6.585938 -42.25 C 10.1875 -42.25 13.703125 -45.148438 14.492188 -48.660156 C 15.285156 -52.261719 13 -55.074219 9.488281 -55.074219 C 5.886719 -55.074219 2.371094 -52.261719 1.582031 -48.660156 C 0.789062 -45.148438 3.074219 -42.25 6.585938 -42.25 Z M 6.585938 -42.25 "/></g></g></g><g fill="#62b6cb" fill-opacity="1"><g transform="translate(249.427808, 219.531329)"><g><path d="M 19.234375 -12.5625 C 15.984375 -15.019531 14.230469 -36.101562 17.304688 -52.878906 C 17.480469 -54.019531 18.269531 -55.511719 16.425781 -55.074219 C 13.175781 -54.457031 9.3125 -48.660156 0.878906 -48.660156 C 0 -48.660156 -0.351562 -47.605469 0.527344 -46.90625 C 3.601562 -44.621094 4.128906 -42.6875 4.128906 -39.4375 L 4.128906 -19.675781 C 4.128906 -16.425781 3.601562 -14.492188 0.527344 -12.210938 C -0.351562 -11.507812 0 -10.363281 0.878906 -10.363281 L 18.269531 -10.363281 C 20.203125 -10.363281 20.113281 -11.859375 19.234375 -12.5625 Z M 19.234375 -12.5625 "/></g></g></g><g fill="#62b6cb" fill-opacity="1"><g transform="translate(269.893461, 219.531329)"><g><path d="M 18.007812 -10.363281 C 19.851562 -10.363281 19.851562 -11.859375 18.886719 -12.5625 C 15.636719 -15.019531 14.582031 -24.945312 16.953125 -40.582031 C 17.128906 -41.722656 18.007812 -43.128906 16.160156 -42.777344 C 12.824219 -42.074219 9.3125 -36.363281 0.878906 -36.363281 C 0 -36.363281 -0.351562 -35.308594 0.527344 -34.609375 C 3.601562 -32.234375 4.128906 -30.304688 4.128906 -27.054688 L 4.128906 -19.675781 C 4.128906 -16.425781 3.601562 -14.492188 0.527344 -12.210938 C -0.351562 -11.507812 0 -10.363281 0.878906 -10.363281 Z M 6.585938 -42.25 C 10.1875 -42.25 13.703125 -45.148438 14.492188 -48.660156 C 15.285156 -52.261719 13 -55.074219 9.488281 -55.074219 C 5.886719 -55.074219 2.371094 -52.261719 1.582031 -48.660156 C 0.789062 -45.148438 3.074219 -42.25 6.585938 -42.25 Z M 6.585938 -42.25 "/></g></g></g><g fill="#62b6cb" fill-opacity="1"><g transform="translate(290.710466, 219.531329)"><g><path d="M 17.566406 -42.863281 C 7.816406 -42.863281 0 -35.574219 0 -26.613281 C 0 -17.65625 7.816406 -10.363281 17.566406 -10.363281 C 27.230469 -10.363281 35.046875 -17.65625 35.046875 -26.613281 C 35.046875 -35.574219 27.230469 -42.863281 17.566406 -42.863281 Z M 17.566406 -12.824219 C 14.757812 -12.824219 12.472656 -19.058594 12.472656 -26.613281 C 12.472656 -34.257812 14.757812 -40.40625 17.566406 -40.40625 C 20.289062 -40.40625 22.574219 -34.257812 22.574219 -26.613281 C 22.574219 -19.058594 20.289062 -12.824219 17.566406 -12.824219 Z M 17.566406 -12.824219 "/></g></g></g><g fill="#e3e6e0" fill-opacity="1"><g transform="translate(54.515216, 218.158857)"><g><path d="M 62.453125 -12.210938 C 59.464844 -14.492188 58.851562 -16.425781 58.851562 -19.675781 L 58.851562 -25.472656 C 58.851562 -35.132812 53.054688 -42.863281 44.972656 -42.863281 C 40.054688 -42.863281 37.066406 -38.03125 35.574219 -33.730469 C 33.289062 -39.175781 28.808594 -42.863281 23.277344 -42.863281 C 20.378906 -42.863281 18.269531 -40.667969 16.601562 -37.859375 L 16.953125 -40.582031 C 17.128906 -41.722656 18.007812 -43.128906 16.160156 -42.777344 C 12.824219 -42.074219 9.3125 -36.363281 0.878906 -36.363281 C 0 -36.363281 -0.351562 -35.308594 0.527344 -34.609375 C 3.601562 -32.234375 4.128906 -30.304688 4.128906 -27.054688 L 4.128906 -19.675781 C 4.128906 -16.425781 3.601562 -14.492188 0.527344 -12.210938 C -0.351562 -11.507812 0 -10.363281 0.878906 -10.363281 L 18.007812 -10.363281 C 19.851562 -10.363281 19.851562 -11.859375 18.886719 -12.5625 C 16.425781 -14.40625 15.195312 -20.554688 15.8125 -30.128906 C 17.039062 -34.167969 18.535156 -38.03125 20.289062 -38.03125 C 26 -38.03125 27.667969 -17.65625 22.046875 -12.5625 C 21.167969 -11.769531 21.082031 -10.363281 22.925781 -10.363281 L 40.40625 -10.363281 C 41.28125 -10.363281 41.632812 -11.507812 40.757812 -12.210938 C 37.683594 -14.492188 37.15625 -16.425781 37.15625 -19.675781 L 37.15625 -25.472656 C 37.15625 -26.789062 37.066406 -28.019531 36.804688 -29.25 C 38.121094 -34.257812 40.140625 -38.03125 42.335938 -38.03125 C 47.957031 -38.03125 49.453125 -17.65625 43.832031 -12.5625 C 42.953125 -11.769531 42.863281 -10.363281 44.707031 -10.363281 L 62.1875 -10.363281 C 63.066406 -10.363281 63.417969 -11.507812 62.453125 -12.210938 Z M 62.453125 -12.210938 "/></g></g></g><g fill="#e3e6e0" fill-opacity="1"><g transform="translate(118.459468, 218.158857)"><g><path d="M 35.222656 -12.210938 C 32.148438 -14.492188 31.621094 -16.425781 31.621094 -19.675781 L 31.621094 -26.878906 C 31.621094 -36.363281 24.507812 -42.863281 15.109375 -42.863281 C 7.027344 -42.863281 2.636719 -38.824219 2.636719 -35.046875 C 2.636719 -29.953125 15.8125 -31.707031 13.964844 -36.011719 C 12.910156 -38.296875 12.910156 -40.40625 14.230469 -40.40625 C 17.390625 -40.40625 19.324219 -34.609375 19.324219 -29.511719 L 19.324219 -26.878906 C 17.390625 -29.425781 14.230469 -31.09375 10.714844 -31.09375 C 4.832031 -31.09375 0 -26.4375 0 -20.730469 C 0 -15.019531 4.832031 -10.363281 10.714844 -10.363281 C 14.230469 -10.363281 17.390625 -12.035156 19.324219 -14.582031 C 19.324219 -14.582031 21.167969 -10.363281 25.910156 -10.363281 L 34.871094 -10.363281 C 35.835938 -10.363281 36.101562 -11.507812 35.222656 -12.210938 Z M 14.582031 -15.109375 C 12.210938 -15.109375 10.277344 -17.65625 10.277344 -20.730469 C 10.277344 -23.804688 12.210938 -26.351562 14.582031 -26.351562 C 17.039062 -26.351562 18.972656 -23.804688 18.972656 -20.730469 C 18.972656 -17.65625 17.039062 -15.109375 14.582031 -15.109375 Z M 14.582031 -15.109375 "/></g></g></g><g fill="#e3e6e0" fill-opacity="1"><g transform="translate(155.26254, 218.158857)"><g><path d="M 33.816406 -42.863281 L 12.648438 -42.863281 C 7.113281 -42.863281 1.667969 -40.316406 0.351562 -36.453125 C -2.460938 -28.546875 12.386719 -29.335938 11.59375 -34.871094 C 11.066406 -38.910156 15.109375 -41.28125 16.425781 -40.054688 C 19.324219 -37.332031 7.464844 -15.019531 3.601562 -12.5625 C 2.371094 -11.769531 2.285156 -10.363281 4.128906 -10.363281 L 30.832031 -10.363281 C 32.5 -10.363281 33.289062 -11.066406 33.289062 -12.824219 L 33.289062 -20.464844 C 33.289062 -21.433594 32.148438 -21.695312 31.445312 -20.816406 C 29.160156 -17.832031 26.789062 -12.824219 21.34375 -12.824219 L 19.851562 -12.824219 C 25.121094 -18.972656 28.898438 -37.417969 33.816406 -40.667969 C 34.957031 -41.457031 35.660156 -42.863281 33.816406 -42.863281 Z M 33.816406 -42.863281 "/></g></g></g><g fill="#e3e6e0" fill-opacity="1"><g transform="translate(190.748079, 218.158857)"><g><path d="M 33.816406 -42.863281 L 12.648438 -42.863281 C 7.113281 -42.863281 1.667969 -40.316406 0.351562 -36.453125 C -2.460938 -28.546875 12.386719 -29.335938 11.59375 -34.871094 C 11.066406 -38.910156 15.109375 -41.28125 16.425781 -40.054688 C 19.324219 -37.332031 7.464844 -15.019531 3.601562 -12.5625 C 2.371094 -11.769531 2.285156 -10.363281 4.128906 -10.363281 L 30.832031 -10.363281 C 32.5 -10.363281 33.289062 -11.066406 33.289062 -12.824219 L 33.289062 -20.464844 C 33.289062 -21.433594 32.148438 -21.695312 31.445312 -20.816406 C 29.160156 -17.832031 26.789062 -12.824219 21.34375 -12.824219 L 19.851562 -12.824219 C 25.121094 -18.972656 28.898438 -37.417969 33.816406 -40.667969 C 34.957031 -41.457031 35.660156 -42.863281 33.816406 -42.863281 Z M 33.816406 -42.863281 "/></g></g></g><g fill="#e3e6e0" fill-opacity="1"><g transform="translate(226.233618, 218.158857)"><g><path d="M 18.007812 -10.363281 C 19.851562 -10.363281 19.851562 -11.859375 18.886719 -12.5625 C 15.636719 -15.019531 14.582031 -24.945312 16.953125 -40.582031 C 17.128906 -41.722656 18.007812 -43.128906 16.160156 -42.777344 C 12.824219 -42.074219 9.3125 -36.363281 0.878906 -36.363281 C 0 -36.363281 -0.351562 -35.308594 0.527344 -34.609375 C 3.601562 -32.234375 4.128906 -30.304688 4.128906 -27.054688 L 4.128906 -19.675781 C 4.128906 -16.425781 3.601562 -14.492188 0.527344 -12.210938 C -0.351562 -11.507812 0 -10.363281 0.878906 -10.363281 Z M 6.585938 -42.25 C 10.1875 -42.25 13.703125 -45.148438 14.492188 -48.660156 C 15.285156 -52.261719 13 -55.074219 9.488281 -55.074219 C 5.886719 -55.074219 2.371094 -52.261719 1.582031 -48.660156 C 0.789062 -45.148438 3.074219 -42.25 6.585938 -42.25 Z M 6.585938 -42.25 "/></g></g></g><g fill="#e3e6e0" fill-opacity="1"><g transform="translate(247.050622, 218.158857)"><g><path d="M 19.234375 -12.5625 C 15.984375 -15.019531 14.230469 -36.101562 17.304688 -52.878906 C 17.480469 -54.019531 18.269531 -55.511719 16.425781 -55.074219 C 13.175781 -54.457031 9.3125 -48.660156 0.878906 -48.660156 C 0 -48.660156 -0.351562 -47.605469 0.527344 -46.90625 C 3.601562 -44.621094 4.128906 -42.6875 4.128906 -39.4375 L 4.128906 -19.675781 C 4.128906 -16.425781 3.601562 -14.492188 0.527344 -12.210938 C -0.351562 -11.507812 0 -10.363281 0.878906 -10.363281 L 18.269531 -10.363281 C 20.203125 -10.363281 20.113281 -11.859375 19.234375 -12.5625 Z M 19.234375 -12.5625 "/></g></g></g><g fill="#e3e6e0" fill-opacity="1"><g transform="translate(267.516276, 218.158857)"><g><path d="M 18.007812 -10.363281 C 19.851562 -10.363281 19.851562 -11.859375 18.886719 -12.5625 C 15.636719 -15.019531 14.582031 -24.945312 16.953125 -40.582031 C 17.128906 -41.722656 18.007812 -43.128906 16.160156 -42.777344 C 12.824219 -42.074219 9.3125 -36.363281 0.878906 -36.363281 C 0 -36.363281 -0.351562 -35.308594 0.527344 -34.609375 C 3.601562 -32.234375 4.128906 -30.304688 4.128906 -27.054688 L 4.128906 -19.675781 C 4.128906 -16.425781 3.601562 -14.492188 0.527344 -12.210938 C -0.351562 -11.507812 0 -10.363281 0.878906 -10.363281 Z M 6.585938 -42.25 C 10.1875 -42.25 13.703125 -45.148438 14.492188 -48.660156 C 15.285156 -52.261719 13 -55.074219 9.488281 -55.074219 C 5.886719 -55.074219 2.371094 -52.261719 1.582031 -48.660156 C 0.789062 -45.148438 3.074219 -42.25 6.585938 -42.25 Z M 6.585938 -42.25 "/></g></g></g><g fill="#e3e6e0" fill-opacity="1"><g transform="translate(288.33328, 218.158857)"><g><path d="M 17.566406 -42.863281 C 7.816406 -42.863281 0 -35.574219 0 -26.613281 C 0 -17.65625 7.816406 -10.363281 17.566406 -10.363281 C 27.230469 -10.363281 35.046875 -17.65625 35.046875 -26.613281 C 35.046875 -35.574219 27.230469 -42.863281 17.566406 -42.863281 Z M 17.566406 -12.824219 C 14.757812 -12.824219 12.472656 -19.058594 12.472656 -26.613281 C 12.472656 -34.257812 14.757812 -40.40625 17.566406 -40.40625 C 20.289062 -40.40625 22.574219 -34.257812 22.574219 -26.613281 C 22.574219 -19.058594 20.289062 -12.824219 17.566406 -12.824219 Z M 17.566406 -12.824219 "/></g></g></g><g clip-path="url(#01cc00d724)"><path fill="#fbfaf9" d="M 45.925781 215 C 38.296875 216.792969 36.84375 218.246094 35.046875 225.875 C 33.253906 218.246094 31.796875 216.792969 24.171875 215 C 31.796875 213.203125 33.253906 211.75 35.046875 204.121094 C 36.84375 211.75 38.296875 213.203125 45.925781 215 Z M 45.925781 215 " fill-opacity="1" fill-rule="nonzero"/></g><g clip-path="url(#981fe7bf67)"><path fill="#62b6cb" d="M 35.210938 245.152344 C 29.949219 246.390625 28.945312 247.390625 27.707031 252.652344 C 26.472656 247.390625 25.464844 246.390625 20.207031 245.152344 C 25.464844 243.914062 26.472656 242.910156 27.707031 237.652344 C 28.945312 242.910156 29.949219 243.914062 35.210938 245.152344 Z M 35.210938 245.152344 " fill-opacity="1" fill-rule="nonzero"/></g><g clip-path="url(#6b3833a10b)"><path fill="#fbfaf9" d="M 281.105469 136.125 C 288.734375 134.328125 290.1875 132.875 291.984375 125.246094 C 293.777344 132.875 295.234375 134.328125 302.859375 136.125 C 295.234375 137.917969 293.777344 139.375 291.984375 147 C 290.1875 139.375 288.734375 137.917969 281.105469 136.125 Z M 281.105469 136.125 " fill-opacity="1" fill-rule="nonzero"/></g><g clip-path="url(#6b10829836)"><path fill="#fbfaf9" d="M 269.882812 117.96875 C 275.144531 116.734375 276.148438 115.730469 277.386719 110.46875 C 278.621094 115.730469 279.625 116.734375 284.886719 117.96875 C 279.625 119.207031 278.621094 120.210938 277.386719 125.472656 C 276.148438 120.210938 275.144531 119.207031 269.882812 117.96875 Z M 269.882812 117.96875 " fill-opacity="1" fill-rule="nonzero"/></g><g clip-path="url(#ddb0aace2e)"><path fill="#62b6cb" d="M 216.078125 141.6875 C 220.023438 140.761719 220.773438 140.007812 221.703125 136.0625 C 222.628906 140.007812 223.382812 140.761719 227.328125 141.6875 C 223.382812 142.617188 222.628906 143.371094 221.703125 147.316406 C 220.773438 143.371094 220.023438 142.617188 216.078125 141.6875 Z M 216.078125 141.6875 " fill-opacity="1" fill-rule="nonzero"/></g><g clip-path="url(#fbca327c06)"><path fill="#85bdbf" d="M 346.523438 177.984375 C 341.261719 179.222656 340.257812 180.226562 339.019531 185.488281 C 337.785156 180.226562 336.78125 179.222656 331.519531 177.984375 C 336.78125 176.75 337.785156 175.746094 339.019531 170.484375 C 340.257812 175.746094 341.261719 176.75 346.523438 177.984375 Z M 346.523438 177.984375 " fill-opacity="1" fill-rule="nonzero"/></g><g clip-path="url(#0214d3bc9f)"><path fill="#fbfaf9" d="M 324.292969 245.152344 C 319.027344 246.390625 318.027344 247.390625 316.789062 252.652344 C 315.550781 247.390625 314.546875 246.390625 309.289062 245.152344 C 314.546875 243.914062 315.550781 242.910156 316.789062 237.652344 C 318.027344 242.910156 319.027344 243.914062 324.292969 245.152344 Z M 324.292969 245.152344 " fill-opacity="1" fill-rule="nonzero"/></g><g clip-path="url(#a31ac97fb9)"><path fill="#85bdbf" d="M 119.71875 133.605469 C 114.457031 134.84375 113.453125 135.84375 112.214844 141.105469 C 110.980469 135.84375 109.976562 134.84375 104.714844 133.605469 C 109.976562 132.367188 110.980469 131.363281 112.214844 126.105469 C 113.453125 131.363281 114.457031 132.367188 119.71875 133.605469 Z M 119.71875 133.605469 " fill-opacity="1" fill-rule="nonzero"/></g><g fill="#000000" fill-opacity="1"><g transform="translate(54.578078, 245.184137)"><g><path d="M 11.449219 0 L 11.449219 -1.554688 L 3.464844 -1.554688 L 3.464844 -7.339844 L 11.210938 -7.339844 L 11.210938 -8.914062 L 3.464844 -8.914062 L 3.464844 -14.699219 L 11.449219 -14.699219 L 11.449219 -16.253906 L 1.792969 -16.253906 L 1.792969 0 Z M 11.449219 0 "/></g></g></g><g fill="#000000" fill-opacity="1"><g transform="translate(67.579193, 245.184137)"><g><path d="M 9.058594 0 L 10.730469 0 L 10.730469 -6.574219 C 10.730469 -7.792969 10.398438 -8.773438 9.777344 -9.511719 C 9.441406 -9.894531 9.058594 -10.183594 8.605469 -10.398438 C 8.125 -10.613281 7.53125 -10.730469 6.789062 -10.730469 C 6.023438 -10.730469 5.378906 -10.515625 4.804688 -10.136719 C 4.253906 -9.777344 3.800781 -9.296875 3.464844 -8.699219 L 3.464844 -10.515625 L 1.792969 -10.515625 L 1.792969 0 L 3.464844 0 L 3.464844 -4.398438 C 3.464844 -5.738281 3.703125 -6.789062 4.207031 -7.578125 C 4.492188 -8.007812 4.851562 -8.367188 5.304688 -8.652344 C 5.738281 -8.914062 6.335938 -9.058594 7.050781 -9.058594 C 7.769531 -9.058594 8.269531 -8.796875 8.582031 -8.316406 C 8.890625 -7.839844 9.058594 -7.242188 9.058594 -6.574219 Z M 9.058594 0 "/></g></g></g><g fill="#000000" fill-opacity="1"><g transform="translate(79.504847, 245.184137)"><g><path d="M 10.300781 -5.257812 C 10.300781 -4.230469 9.945312 -3.324219 9.226562 -2.582031 C 8.507812 -1.816406 7.625 -1.433594 6.597656 -1.433594 C 5.570312 -1.433594 4.683594 -1.816406 3.96875 -2.582031 C 3.25 -3.324219 2.890625 -4.207031 2.890625 -5.257812 C 2.890625 -6.285156 3.25 -7.171875 3.96875 -7.9375 C 4.683594 -8.699219 5.570312 -9.082031 6.597656 -9.082031 C 7.625 -9.082031 8.507812 -8.699219 9.226562 -7.9375 C 9.945312 -7.171875 10.300781 -6.261719 10.300781 -5.257812 Z M 2.84375 1.433594 L 1.125 1.433594 C 1.316406 2.558594 1.816406 3.539062 2.675781 4.375 C 3.730469 5.449219 5.019531 5.976562 6.527344 5.976562 C 8.007812 5.976562 9.296875 5.449219 10.375 4.375 C 11.425781 3.324219 11.976562 2.03125 11.976562 0.527344 L 11.976562 -10.515625 L 10.300781 -10.515625 L 10.300781 -8.75 C 10.207031 -8.84375 10.109375 -8.964844 10.015625 -9.082031 C 8.964844 -10.183594 7.746094 -10.757812 6.359375 -10.757812 C 4.875 -10.757812 3.65625 -10.183594 2.652344 -9.082031 C 1.695312 -7.984375 1.21875 -6.714844 1.21875 -5.257812 C 1.21875 -3.777344 1.695312 -2.511719 2.652344 -1.433594 C 3.65625 -0.3125 4.875 0.238281 6.359375 0.238281 C 7.792969 0.238281 9.011719 -0.3125 10.015625 -1.433594 C 10.109375 -1.53125 10.207031 -1.648438 10.300781 -1.746094 L 10.300781 0.527344 C 10.300781 1.578125 9.917969 2.460938 9.179688 3.203125 C 8.4375 3.945312 7.554688 4.300781 6.527344 4.300781 C 5.472656 4.300781 4.589844 3.945312 3.847656 3.203125 C 3.324219 2.675781 2.988281 2.101562 2.84375 1.433594 Z M 2.84375 1.433594 "/></g></g></g><g fill="#000000" fill-opacity="1"><g transform="translate(93.031744, 245.184137)"><g><path d="M 3.488281 -14.152344 C 3.273438 -14.339844 3.011719 -14.460938 2.726562 -14.460938 C 2.4375 -14.460938 2.175781 -14.339844 1.984375 -14.152344 C 1.769531 -13.933594 1.671875 -13.671875 1.671875 -13.386719 C 1.671875 -13.097656 1.769531 -12.835938 1.984375 -12.644531 C 2.175781 -12.429688 2.4375 -12.332031 2.726562 -12.332031 C 3.011719 -12.332031 3.273438 -12.429688 3.488281 -12.644531 C 3.679688 -12.835938 3.800781 -13.097656 3.800781 -13.386719 C 3.800781 -13.671875 3.679688 -13.933594 3.488281 -14.152344 Z M 3.585938 0 L 3.585938 -10.515625 L 1.914062 -10.515625 L 1.914062 0 Z M 3.585938 0 "/></g></g></g><g fill="#000000" fill-opacity="1"><g transform="translate(98.265628, 245.184137)"><g><path d="M 9.058594 0 L 10.730469 0 L 10.730469 -6.574219 C 10.730469 -7.792969 10.398438 -8.773438 9.777344 -9.511719 C 9.441406 -9.894531 9.058594 -10.183594 8.605469 -10.398438 C 8.125 -10.613281 7.53125 -10.730469 6.789062 -10.730469 C 6.023438 -10.730469 5.378906 -10.515625 4.804688 -10.136719 C 4.253906 -9.777344 3.800781 -9.296875 3.464844 -8.699219 L 3.464844 -10.515625 L 1.792969 -10.515625 L 1.792969 0 L 3.464844 0 L 3.464844 -4.398438 C 3.464844 -5.738281 3.703125 -6.789062 4.207031 -7.578125 C 4.492188 -8.007812 4.851562 -8.367188 5.304688 -8.652344 C 5.738281 -8.914062 6.335938 -9.058594 7.050781 -9.058594 C 7.769531 -9.058594 8.269531 -8.796875 8.582031 -8.316406 C 8.890625 -7.839844 9.058594 -7.242188 9.058594 -6.574219 Z M 9.058594 0 "/></g></g></g><g fill="#000000" fill-opacity="1"><g transform="translate(110.191281, 245.184137)"><g><path d="M 12.070312 -5.496094 C 12.070312 -6.933594 11.496094 -8.175781 10.398438 -9.25 C 9.320312 -10.277344 8.03125 -10.804688 6.574219 -10.804688 C 5.042969 -10.804688 3.753906 -10.253906 2.675781 -9.179688 C 1.601562 -8.101562 1.074219 -6.8125 1.074219 -5.304688 C 1.074219 -3.777344 1.601562 -2.484375 2.675781 -1.433594 C 3.179688 -0.933594 3.753906 -0.550781 4.421875 -0.261719 C 5.089844 0.0234375 5.878906 0.167969 6.8125 0.167969 C 7.746094 0.167969 8.652344 -0.121094 9.5625 -0.691406 C 10.46875 -1.265625 11.140625 -2.078125 11.59375 -3.082031 L 9.679688 -3.082031 C 9.296875 -2.582031 8.84375 -2.199219 8.292969 -1.914062 C 7.746094 -1.625 7.171875 -1.507812 6.574219 -1.507812 C 5.664062 -1.507812 4.851562 -1.792969 4.136719 -2.390625 C 3.417969 -2.964844 2.964844 -3.703125 2.820312 -4.613281 L 12.070312 -4.613281 Z M 10.300781 -6.046875 L 2.84375 -6.046875 C 2.941406 -6.476562 3.105469 -6.882812 3.347656 -7.265625 C 4.109375 -8.507812 5.1875 -9.132812 6.574219 -9.132812 C 7.457031 -9.132812 8.246094 -8.84375 8.941406 -8.269531 C 9.65625 -7.671875 10.085938 -6.933594 10.300781 -6.046875 Z M 10.300781 -6.046875 "/></g></g></g><g fill="#000000" fill-opacity="1"><g transform="translate(122.977308, 245.184137)"><g><path d="M 12.070312 -5.496094 C 12.070312 -6.933594 11.496094 -8.175781 10.398438 -9.25 C 9.320312 -10.277344 8.03125 -10.804688 6.574219 -10.804688 C 5.042969 -10.804688 3.753906 -10.253906 2.675781 -9.179688 C 1.601562 -8.101562 1.074219 -6.8125 1.074219 -5.304688 C 1.074219 -3.777344 1.601562 -2.484375 2.675781 -1.433594 C 3.179688 -0.933594 3.753906 -0.550781 4.421875 -0.261719 C 5.089844 0.0234375 5.878906 0.167969 6.8125 0.167969 C 7.746094 0.167969 8.652344 -0.121094 9.5625 -0.691406 C 10.46875 -1.265625 11.140625 -2.078125 11.59375 -3.082031 L 9.679688 -3.082031 C 9.296875 -2.582031 8.84375 -2.199219 8.292969 -1.914062 C 7.746094 -1.625 7.171875 -1.507812 6.574219 -1.507812 C 5.664062 -1.507812 4.851562 -1.792969 4.136719 -2.390625 C 3.417969 -2.964844 2.964844 -3.703125 2.820312 -4.613281 L 12.070312 -4.613281 Z M 10.300781 -6.046875 L 2.84375 -6.046875 C 2.941406 -6.476562 3.105469 -6.882812 3.347656 -7.265625 C 4.109375 -8.507812 5.1875 -9.132812 6.574219 -9.132812 C 7.457031 -9.132812 8.246094 -8.84375 8.941406 -8.269531 C 9.65625 -7.671875 10.085938 -6.933594 10.300781 -6.046875 Z M 10.300781 -6.046875 "/></g></g></g><g fill="#000000" fill-opacity="1"><g transform="translate(135.763336, 245.184137)"><g><path d="M 7.195312 -8.34375 L 7.195312 -10.515625 C 6.859375 -10.660156 6.5 -10.730469 6.144531 -10.730469 C 4.949219 -10.730469 4.085938 -10.0625 3.539062 -8.773438 L 3.464844 -8.34375 L 3.464844 -10.515625 L 1.792969 -10.515625 L 1.792969 0 L 3.464844 0 L 3.464844 -5.257812 C 3.464844 -6.117188 3.65625 -6.882812 4.0625 -7.578125 C 4.253906 -7.9375 4.519531 -8.246094 4.828125 -8.484375 C 5.140625 -8.722656 5.523438 -8.867188 5.953125 -8.867188 C 6.382812 -8.867188 6.789062 -8.675781 7.195312 -8.34375 Z M 7.195312 -8.34375 "/></g></g></g><g fill="#000000" fill-opacity="1"><g transform="translate(142.956954, 245.184137)"><g><path d="M 3.179688 0.238281 C 3.539062 0.238281 3.871094 0.121094 4.160156 -0.144531 C 4.445312 -0.40625 4.589844 -0.71875 4.589844 -1.097656 C 4.589844 -1.480469 4.445312 -1.792969 4.160156 -2.054688 C 3.871094 -2.320312 3.5625 -2.460938 3.179688 -2.460938 C 2.796875 -2.460938 2.460938 -2.320312 2.199219 -2.054688 C 1.914062 -1.769531 1.792969 -1.457031 1.792969 -1.097656 C 1.792969 -0.71875 1.914062 -0.40625 2.199219 -0.144531 C 2.484375 0.121094 2.796875 0.238281 3.179688 0.238281 Z M 3.179688 0.238281 "/></g></g></g><g fill="#000000" fill-opacity="1"><g transform="translate(149.099003, 245.184137)"><g/></g></g><g fill="#000000" fill-opacity="1"><g transform="translate(155.312749, 245.184137)"><g><path d="M 16.707031 -4.972656 L 14.867188 -4.972656 C 14.292969 -3.921875 13.503906 -3.058594 12.5 -2.4375 C 11.496094 -1.792969 10.375 -1.480469 9.179688 -1.480469 C 7.386719 -1.480469 5.855469 -2.128906 4.589844 -3.464844 C 3.347656 -4.734375 2.75 -6.285156 2.75 -8.101562 C 2.75 -9.917969 3.347656 -11.472656 4.589844 -12.765625 C 5.164062 -13.363281 5.855469 -13.839844 6.644531 -14.199219 C 7.410156 -14.558594 8.175781 -14.746094 8.941406 -14.746094 C 9.679688 -14.746094 10.324219 -14.652344 10.898438 -14.484375 C 12.644531 -13.960938 13.960938 -12.90625 14.84375 -11.304688 L 16.683594 -11.304688 C 16.0625 -12.835938 15.082031 -14.078125 13.71875 -15.035156 C 12.332031 -15.992188 10.828125 -16.46875 9.179688 -16.46875 C 6.90625 -16.46875 4.996094 -15.632812 3.417969 -13.984375 C 2.675781 -13.21875 2.101562 -12.308594 1.695312 -11.304688 C 1.265625 -10.300781 1.074219 -9.226562 1.074219 -8.101562 C 1.074219 -5.808594 1.839844 -3.871094 3.417969 -2.246094 C 4.996094 -0.574219 6.90625 0.238281 9.179688 0.238281 C 10.828125 0.238281 12.332031 -0.238281 13.742188 -1.195312 C 15.105469 -2.152344 16.085938 -3.394531 16.707031 -4.972656 Z M 16.707031 -4.972656 "/></g></g></g><g fill="#000000" fill-opacity="1"><g transform="translate(172.496215, 245.184137)"><g><path d="M 7.195312 -8.34375 L 7.195312 -10.515625 C 6.859375 -10.660156 6.5 -10.730469 6.144531 -10.730469 C 4.949219 -10.730469 4.085938 -10.0625 3.539062 -8.773438 L 3.464844 -8.34375 L 3.464844 -10.515625 L 1.792969 -10.515625 L 1.792969 0 L 3.464844 0 L 3.464844 -5.257812 C 3.464844 -6.117188 3.65625 -6.882812 4.0625 -7.578125 C 4.253906 -7.9375 4.519531 -8.246094 4.828125 -8.484375 C 5.140625 -8.722656 5.523438 -8.867188 5.953125 -8.867188 C 6.382812 -8.867188 6.789062 -8.675781 7.195312 -8.34375 Z M 7.195312 -8.34375 "/></g></g></g><g fill="#000000" fill-opacity="1"><g transform="translate(179.689838, 245.184137)"><g><path d="M 12.070312 -5.496094 C 12.070312 -6.933594 11.496094 -8.175781 10.398438 -9.25 C 9.320312 -10.277344 8.03125 -10.804688 6.574219 -10.804688 C 5.042969 -10.804688 3.753906 -10.253906 2.675781 -9.179688 C 1.601562 -8.101562 1.074219 -6.8125 1.074219 -5.304688 C 1.074219 -3.777344 1.601562 -2.484375 2.675781 -1.433594 C 3.179688 -0.933594 3.753906 -0.550781 4.421875 -0.261719 C 5.089844 0.0234375 5.878906 0.167969 6.8125 0.167969 C 7.746094 0.167969 8.652344 -0.121094 9.5625 -0.691406 C 10.46875 -1.265625 11.140625 -2.078125 11.59375 -3.082031 L 9.679688 -3.082031 C 9.296875 -2.582031 8.84375 -2.199219 8.292969 -1.914062 C 7.746094 -1.625 7.171875 -1.507812 6.574219 -1.507812 C 5.664062 -1.507812 4.851562 -1.792969 4.136719 -2.390625 C 3.417969 -2.964844 2.964844 -3.703125 2.820312 -4.613281 L 12.070312 -4.613281 Z M 10.300781 -6.046875 L 2.84375 -6.046875 C 2.941406 -6.476562 3.105469 -6.882812 3.347656 -7.265625 C 4.109375 -8.507812 5.1875 -9.132812 6.574219 -9.132812 C 7.457031 -9.132812 8.246094 -8.84375 8.941406 -8.269531 C 9.65625 -7.671875 10.085938 -6.933594 10.300781 -6.046875 Z M 10.300781 -6.046875 "/></g></g></g><g fill="#000000" fill-opacity="1"><g transform="translate(192.47586, 245.184137)"><g><path d="M 10.160156 -5.257812 C 10.160156 -4.230469 9.800781 -3.324219 9.082031 -2.582031 C 8.367188 -1.816406 7.480469 -1.433594 6.453125 -1.433594 C 5.402344 -1.433594 4.519531 -1.816406 3.800781 -2.582031 C 3.082031 -3.324219 2.75 -4.230469 2.75 -5.257812 C 2.75 -6.261719 3.082031 -7.171875 3.800781 -7.9375 C 4.519531 -8.699219 5.402344 -9.082031 6.453125 -9.082031 C 7.480469 -9.082031 8.367188 -8.699219 9.082031 -7.9375 C 9.800781 -7.171875 10.160156 -6.261719 10.160156 -5.257812 Z M 11.832031 0 L 11.832031 -10.515625 L 10.160156 -10.515625 L 10.160156 -8.699219 C 10.0625 -8.84375 9.945312 -8.964844 9.847656 -9.082031 C 8.84375 -10.183594 7.625 -10.757812 6.191406 -10.757812 C 4.734375 -10.757812 3.515625 -10.183594 2.511719 -9.082031 C 1.554688 -7.984375 1.074219 -6.714844 1.074219 -5.257812 C 1.074219 -3.777344 1.554688 -2.511719 2.511719 -1.433594 C 3.515625 -0.3125 4.734375 0.238281 6.191406 0.238281 C 7.625 0.238281 8.84375 -0.3125 9.847656 -1.433594 C 9.945312 -1.53125 10.0625 -1.648438 10.160156 -1.792969 L 10.160156 0 Z M 11.832031 0 "/></g></g></g><g fill="#000000" fill-opacity="1"><g transform="translate(205.859361, 245.184137)"><g><path d="M 0.476562 -8.964844 L 3.105469 -8.964844 L 3.105469 0 L 4.78125 0 L 4.78125 -8.964844 L 7.386719 -8.964844 L 7.386719 -10.515625 L 4.78125 -10.515625 L 4.78125 -14.605469 L 3.105469 -14.605469 L 3.105469 -10.515625 L 0.476562 -10.515625 Z M 0.476562 -8.964844 "/></g></g></g><g fill="#000000" fill-opacity="1"><g transform="translate(213.48316, 245.184137)"><g><path d="M 10.398438 -5.304688 C 10.398438 -4.253906 10.015625 -3.371094 9.273438 -2.628906 C 8.507812 -1.863281 7.625 -1.507812 6.574219 -1.507812 C 5.523438 -1.507812 4.613281 -1.863281 3.871094 -2.628906 C 3.105469 -3.371094 2.75 -4.253906 2.75 -5.304688 C 2.75 -6.359375 3.105469 -7.242188 3.871094 -8.007812 C 4.613281 -8.75 5.523438 -9.132812 6.574219 -9.132812 C 7.625 -9.132812 8.507812 -8.75 9.273438 -8.007812 C 10.015625 -7.242188 10.398438 -6.359375 10.398438 -5.304688 Z M 12.070312 -5.304688 C 12.070312 -6.8125 11.519531 -8.101562 10.445312 -9.179688 C 9.371094 -10.253906 8.078125 -10.804688 6.574219 -10.804688 C 5.042969 -10.804688 3.753906 -10.253906 2.675781 -9.179688 C 1.601562 -8.101562 1.074219 -6.8125 1.074219 -5.304688 C 1.074219 -3.777344 1.601562 -2.484375 2.675781 -1.433594 C 3.753906 -0.359375 5.066406 0.167969 6.574219 0.167969 C 8.054688 0.167969 9.371094 -0.359375 10.445312 -1.433594 C 11.519531 -2.484375 12.070312 -3.777344 12.070312 -5.304688 Z M 12.070312 -5.304688 "/></g></g></g><g fill="#000000" fill-opacity="1"><g transform="translate(226.388687, 245.184137)"><g><path d="M 7.195312 -8.34375 L 7.195312 -10.515625 C 6.859375 -10.660156 6.5 -10.730469 6.144531 -10.730469 C 4.949219 -10.730469 4.085938 -10.0625 3.539062 -8.773438 L 3.464844 -8.34375 L 3.464844 -10.515625 L 1.792969 -10.515625 L 1.792969 0 L 3.464844 0 L 3.464844 -5.257812 C 3.464844 -6.117188 3.65625 -6.882812 4.0625 -7.578125 C 4.253906 -7.9375 4.519531 -8.246094 4.828125 -8.484375 C 5.140625 -8.722656 5.523438 -8.867188 5.953125 -8.867188 C 6.382812 -8.867188 6.789062 -8.675781 7.195312 -8.34375 Z M 7.195312 -8.34375 "/></g></g></g><g fill="#000000" fill-opacity="1"><g transform="translate(233.58231, 245.184137)"><g><path d="M 3.179688 0.238281 C 3.539062 0.238281 3.871094 0.121094 4.160156 -0.144531 C 4.445312 -0.40625 4.589844 -0.71875 4.589844 -1.097656 C 4.589844 -1.480469 4.445312 -1.792969 4.160156 -2.054688 C 3.871094 -2.320312 3.5625 -2.460938 3.179688 -2.460938 C 2.796875 -2.460938 2.460938 -2.320312 2.199219 -2.054688 C 1.914062 -1.769531 1.792969 -1.457031 1.792969 -1.097656 C 1.792969 -0.71875 1.914062 -0.40625 2.199219 -0.144531 C 2.484375 0.121094 2.796875 0.238281 3.179688 0.238281 Z M 3.179688 0.238281 "/></g></g></g><g fill="#000000" fill-opacity="1"><g transform="translate(239.724369, 245.184137)"><g/></g></g><g fill="#000000" fill-opacity="1"><g transform="translate(245.938115, 245.184137)"><g><path d="M 3.464844 -1.671875 L 3.464844 -16.253906 L 1.792969 -16.253906 L 1.792969 0 L 9.273438 0 L 9.273438 -1.671875 Z M 3.464844 -1.671875 "/></g></g></g><g fill="#000000" fill-opacity="1"><g transform="translate(255.449944, 245.184137)"><g><path d="M 12.070312 -5.496094 C 12.070312 -6.933594 11.496094 -8.175781 10.398438 -9.25 C 9.320312 -10.277344 8.03125 -10.804688 6.574219 -10.804688 C 5.042969 -10.804688 3.753906 -10.253906 2.675781 -9.179688 C 1.601562 -8.101562 1.074219 -6.8125 1.074219 -5.304688 C 1.074219 -3.777344 1.601562 -2.484375 2.675781 -1.433594 C 3.179688 -0.933594 3.753906 -0.550781 4.421875 -0.261719 C 5.089844 0.0234375 5.878906 0.167969 6.8125 0.167969 C 7.746094 0.167969 8.652344 -0.121094 9.5625 -0.691406 C 10.46875 -1.265625 11.140625 -2.078125 11.59375 -3.082031 L 9.679688 -3.082031 C 9.296875 -2.582031 8.84375 -2.199219 8.292969 -1.914062 C 7.746094 -1.625 7.171875 -1.507812 6.574219 -1.507812 C 5.664062 -1.507812 4.851562 -1.792969 4.136719 -2.390625 C 3.417969 -2.964844 2.964844 -3.703125 2.820312 -4.613281 L 12.070312 -4.613281 Z M 10.300781 -6.046875 L 2.84375 -6.046875 C 2.941406 -6.476562 3.105469 -6.882812 3.347656 -7.265625 C 4.109375 -8.507812 5.1875 -9.132812 6.574219 -9.132812 C 7.457031 -9.132812 8.246094 -8.84375 8.941406 -8.269531 C 9.65625 -7.671875 10.085938 -6.933594 10.300781 -6.046875 Z M 10.300781 -6.046875 "/></g></g></g><g fill="#000000" fill-opacity="1"><g transform="translate(268.235966, 245.184137)"><g><path d="M 10.160156 -5.257812 C 10.160156 -4.230469 9.800781 -3.324219 9.082031 -2.582031 C 8.367188 -1.816406 7.480469 -1.433594 6.453125 -1.433594 C 5.402344 -1.433594 4.519531 -1.816406 3.800781 -2.582031 C 3.082031 -3.324219 2.75 -4.230469 2.75 -5.257812 C 2.75 -6.261719 3.082031 -7.171875 3.800781 -7.9375 C 4.519531 -8.699219 5.402344 -9.082031 6.453125 -9.082031 C 7.480469 -9.082031 8.367188 -8.699219 9.082031 -7.9375 C 9.800781 -7.171875 10.160156 -6.261719 10.160156 -5.257812 Z M 11.832031 0 L 11.832031 -10.515625 L 10.160156 -10.515625 L 10.160156 -8.699219 C 10.0625 -8.84375 9.945312 -8.964844 9.847656 -9.082031 C 8.84375 -10.183594 7.625 -10.757812 6.191406 -10.757812 C 4.734375 -10.757812 3.515625 -10.183594 2.511719 -9.082031 C 1.554688 -7.984375 1.074219 -6.714844 1.074219 -5.257812 C 1.074219 -3.777344 1.554688 -2.511719 2.511719 -1.433594 C 3.515625 -0.3125 4.734375 0.238281 6.191406 0.238281 C 7.625 0.238281 8.84375 -0.3125 9.847656 -1.433594 C 9.945312 -1.53125 10.0625 -1.648438 10.160156 -1.792969 L 10.160156 0 Z M 11.832031 0 "/></g></g></g><g fill="#000000" fill-opacity="1"><g transform="translate(281.619466, 245.184137)"><g><path d="M 7.195312 -8.34375 L 7.195312 -10.515625 C 6.859375 -10.660156 6.5 -10.730469 6.144531 -10.730469 C 4.949219 -10.730469 4.085938 -10.0625 3.539062 -8.773438 L 3.464844 -8.34375 L 3.464844 -10.515625 L 1.792969 -10.515625 L 1.792969 0 L 3.464844 0 L 3.464844 -5.257812 C 3.464844 -6.117188 3.65625 -6.882812 4.0625 -7.578125 C 4.253906 -7.9375 4.519531 -8.246094 4.828125 -8.484375 C 5.140625 -8.722656 5.523438 -8.867188 5.953125 -8.867188 C 6.382812 -8.867188 6.789062 -8.675781 7.195312 -8.34375 Z M 7.195312 -8.34375 "/></g></g></g><g fill="#000000" fill-opacity="1"><g transform="translate(288.813089, 245.184137)"><g><path d="M 9.058594 0 L 10.730469 0 L 10.730469 -6.574219 C 10.730469 -7.792969 10.398438 -8.773438 9.777344 -9.511719 C 9.441406 -9.894531 9.058594 -10.183594 8.605469 -10.398438 C 8.125 -10.613281 7.53125 -10.730469 6.789062 -10.730469 C 6.023438 -10.730469 5.378906 -10.515625 4.804688 -10.136719 C 4.253906 -9.777344 3.800781 -9.296875 3.464844 -8.699219 L 3.464844 -10.515625 L 1.792969 -10.515625 L 1.792969 0 L 3.464844 0 L 3.464844 -4.398438 C 3.464844 -5.738281 3.703125 -6.789062 4.207031 -7.578125 C 4.492188 -8.007812 4.851562 -8.367188 5.304688 -8.652344 C 5.738281 -8.914062 6.335938 -9.058594 7.050781 -9.058594 C 7.769531 -9.058594 8.269531 -8.796875 8.582031 -8.316406 C 8.890625 -7.839844 9.058594 -7.242188 9.058594 -6.574219 Z M 9.058594 0 "/></g></g></g><g fill="#000000" fill-opacity="1"><g transform="translate(300.738738, 245.184137)"><g><path d="M 12.070312 -5.496094 C 12.070312 -6.933594 11.496094 -8.175781 10.398438 -9.25 C 9.320312 -10.277344 8.03125 -10.804688 6.574219 -10.804688 C 5.042969 -10.804688 3.753906 -10.253906 2.675781 -9.179688 C 1.601562 -8.101562 1.074219 -6.8125 1.074219 -5.304688 C 1.074219 -3.777344 1.601562 -2.484375 2.675781 -1.433594 C 3.179688 -0.933594 3.753906 -0.550781 4.421875 -0.261719 C 5.089844 0.0234375 5.878906 0.167969 6.8125 0.167969 C 7.746094 0.167969 8.652344 -0.121094 9.5625 -0.691406 C 10.46875 -1.265625 11.140625 -2.078125 11.59375 -3.082031 L 9.679688 -3.082031 C 9.296875 -2.582031 8.84375 -2.199219 8.292969 -1.914062 C 7.746094 -1.625 7.171875 -1.507812 6.574219 -1.507812 C 5.664062 -1.507812 4.851562 -1.792969 4.136719 -2.390625 C 3.417969 -2.964844 2.964844 -3.703125 2.820312 -4.613281 L 12.070312 -4.613281 Z M 10.300781 -6.046875 L 2.84375 -6.046875 C 2.941406 -6.476562 3.105469 -6.882812 3.347656 -7.265625 C 4.109375 -8.507812 5.1875 -9.132812 6.574219 -9.132812 C 7.457031 -9.132812 8.246094 -8.84375 8.941406 -8.269531 C 9.65625 -7.671875 10.085938 -6.933594 10.300781 -6.046875 Z M 10.300781 -6.046875 "/></g></g></g><g fill="#000000" fill-opacity="1"><g transform="translate(313.52476, 245.184137)"><g><path d="M 7.195312 -8.34375 L 7.195312 -10.515625 C 6.859375 -10.660156 6.5 -10.730469 6.144531 -10.730469 C 4.949219 -10.730469 4.085938 -10.0625 3.539062 -8.773438 L 3.464844 -8.34375 L 3.464844 -10.515625 L 1.792969 -10.515625 L 1.792969 0 L 3.464844 0 L 3.464844 -5.257812 C 3.464844 -6.117188 3.65625 -6.882812 4.0625 -7.578125 C 4.253906 -7.9375 4.519531 -8.246094 4.828125 -8.484375 C 5.140625 -8.722656 5.523438 -8.867188 5.953125 -8.867188 C 6.382812 -8.867188 6.789062 -8.675781 7.195312 -8.34375 Z M 7.195312 -8.34375 "/></g></g></g><g fill="#000000" fill-opacity="1"><g transform="translate(320.718383, 245.184137)"><g><path d="M 3.179688 0.238281 C 3.539062 0.238281 3.871094 0.121094 4.160156 -0.144531 C 4.445312 -0.40625 4.589844 -0.71875 4.589844 -1.097656 C 4.589844 -1.480469 4.445312 -1.792969 4.160156 -2.054688 C 3.871094 -2.320312 3.5625 -2.460938 3.179688 -2.460938 C 2.796875 -2.460938 2.460938 -2.320312 2.199219 -2.054688 C 1.914062 -1.769531 1.792969 -1.457031 1.792969 -1.097656 C 1.792969 -0.71875 1.914062 -0.40625 2.199219 -0.144531 C 2.484375 0.121094 2.796875 0.238281 3.179688 0.238281 Z M 3.179688 0.238281 "/></g></g></g></svg>