<svg xmlns="http://www.w3.org/2000/svg" xmlns:xlink="http://www.w3.org/1999/xlink" zoomAndPan="magnify" preserveAspectRatio="xMidYMid meet" version="1.0" viewBox="15.49 147 354.58 60.35"><defs><g/></defs><g fill="#62b6cb" fill-opacity="1"><g transform="translate(18.578348, 220.896207)"><g><path d="M 81.644531 -15.960938 C 77.738281 -18.945312 76.9375 -21.472656 76.9375 -25.722656 L 76.9375 -33.300781 C 76.9375 -45.933594 69.355469 -56.035156 58.792969 -56.035156 C 52.363281 -56.035156 48.457031 -49.722656 46.507812 -44.09375 C 43.519531 -51.214844 37.664062 -56.035156 30.429688 -56.035156 C 26.640625 -56.035156 23.882812 -53.167969 21.703125 -49.492188 L 22.164062 -53.050781 C 22.390625 -54.542969 23.539062 -56.382812 21.128906 -55.921875 C 16.765625 -55.003906 12.171875 -47.539062 1.148438 -47.539062 C 0 -47.539062 -0.460938 -46.160156 0.6875 -45.242188 C 4.707031 -42.144531 5.398438 -39.617188 5.398438 -35.367188 L 5.398438 -25.722656 C 5.398438 -21.472656 4.707031 -18.945312 0.6875 -15.960938 C -0.460938 -15.042969 0 -13.550781 1.148438 -13.550781 L 23.539062 -13.550781 C 25.953125 -13.550781 25.953125 -15.503906 24.6875 -16.421875 C 21.472656 -18.832031 19.867188 -26.871094 20.667969 -39.386719 C 22.277344 -44.667969 24.230469 -49.722656 26.527344 -49.722656 C 33.988281 -49.722656 36.171875 -23.082031 28.824219 -16.421875 C 27.675781 -15.386719 27.558594 -13.550781 29.96875 -13.550781 L 52.820312 -13.550781 C 53.96875 -13.550781 54.429688 -15.042969 53.28125 -15.960938 C 49.261719 -18.945312 48.574219 -21.472656 48.574219 -25.722656 L 48.574219 -33.300781 C 48.574219 -35.023438 48.457031 -36.628906 48.113281 -38.238281 C 49.835938 -44.785156 52.476562 -49.722656 55.347656 -49.722656 C 62.695312 -49.722656 64.648438 -23.082031 57.300781 -16.421875 C 56.152344 -15.386719 56.035156 -13.550781 58.449219 -13.550781 L 81.300781 -13.550781 C 82.449219 -13.550781 82.90625 -15.042969 81.644531 -15.960938 Z M 81.644531 -15.960938 "/></g></g></g><g fill="#62b6cb" fill-opacity="1"><g transform="translate(102.1737, 220.896207)"><g><path d="M 46.046875 -15.960938 C 42.027344 -18.945312 41.339844 -21.472656 41.339844 -25.722656 L 41.339844 -35.136719 C 41.339844 -47.539062 32.039062 -56.035156 19.75 -56.035156 C 9.1875 -56.035156 3.445312 -50.753906 3.445312 -45.816406 C 3.445312 -39.15625 20.667969 -41.453125 18.257812 -47.082031 C 16.878906 -50.066406 16.878906 -52.820312 18.601562 -52.820312 C 22.738281 -52.820312 25.261719 -45.242188 25.261719 -38.582031 L 25.261719 -35.136719 C 22.738281 -38.46875 18.601562 -40.648438 14.007812 -40.648438 C 6.316406 -40.648438 0 -34.5625 0 -27.101562 C 0 -19.636719 6.316406 -13.550781 14.007812 -13.550781 C 18.601562 -13.550781 22.738281 -15.730469 25.261719 -19.0625 C 25.261719 -19.0625 27.675781 -13.550781 33.875 -13.550781 L 45.585938 -13.550781 C 46.851562 -13.550781 47.195312 -15.042969 46.046875 -15.960938 Z M 19.0625 -19.75 C 15.960938 -19.75 13.433594 -23.082031 13.433594 -27.101562 C 13.433594 -31.117188 15.960938 -34.449219 19.0625 -34.449219 C 22.277344 -34.449219 24.804688 -31.117188 24.804688 -27.101562 C 24.804688 -23.082031 22.277344 -19.75 19.0625 -19.75 Z M 19.0625 -19.75 "/></g></g></g><g fill="#62b6cb" fill-opacity="1"><g transform="translate(150.286949, 220.896207)"><g><path d="M 44.210938 -56.035156 L 16.535156 -56.035156 C 9.300781 -56.035156 2.183594 -52.707031 0.460938 -47.65625 C -3.214844 -37.320312 16.191406 -38.351562 15.15625 -45.585938 C 14.46875 -50.871094 19.75 -53.96875 21.472656 -52.363281 C 25.261719 -48.804688 9.761719 -19.636719 4.707031 -16.421875 C 3.101562 -15.386719 2.984375 -13.550781 5.398438 -13.550781 L 40.304688 -13.550781 C 42.488281 -13.550781 43.519531 -14.46875 43.519531 -16.765625 L 43.519531 -26.753906 C 43.519531 -28.019531 42.027344 -28.363281 41.109375 -27.214844 C 38.125 -23.308594 35.023438 -16.765625 27.902344 -16.765625 L 25.953125 -16.765625 C 32.839844 -24.804688 37.777344 -48.917969 44.210938 -53.167969 C 45.703125 -54.199219 46.621094 -56.035156 44.210938 -56.035156 Z M 44.210938 -56.035156 "/></g></g></g><g fill="#62b6cb" fill-opacity="1"><g transform="translate(196.677766, 220.896207)"><g><path d="M 44.210938 -56.035156 L 16.535156 -56.035156 C 9.300781 -56.035156 2.183594 -52.707031 0.460938 -47.65625 C -3.214844 -37.320312 16.191406 -38.351562 15.15625 -45.585938 C 14.46875 -50.871094 19.75 -53.96875 21.472656 -52.363281 C 25.261719 -48.804688 9.761719 -19.636719 4.707031 -16.421875 C 3.101562 -15.386719 2.984375 -13.550781 5.398438 -13.550781 L 40.304688 -13.550781 C 42.488281 -13.550781 43.519531 -14.46875 43.519531 -16.765625 L 43.519531 -26.753906 C 43.519531 -28.019531 42.027344 -28.363281 41.109375 -27.214844 C 38.125 -23.308594 35.023438 -16.765625 27.902344 -16.765625 L 25.953125 -16.765625 C 32.839844 -24.804688 37.777344 -48.917969 44.210938 -53.167969 C 45.703125 -54.199219 46.621094 -56.035156 44.210938 -56.035156 Z M 44.210938 -56.035156 "/></g></g></g><g fill="#62b6cb" fill-opacity="1"><g transform="translate(243.068584, 220.896207)"><g><path d="M 23.539062 -13.550781 C 25.953125 -13.550781 25.953125 -15.503906 24.6875 -16.421875 C 20.441406 -19.636719 19.0625 -32.613281 22.164062 -53.050781 C 22.390625 -54.542969 23.539062 -56.382812 21.128906 -55.921875 C 16.765625 -55.003906 12.171875 -47.539062 1.148438 -47.539062 C 0 -47.539062 -0.460938 -46.160156 0.6875 -45.242188 C 4.707031 -42.144531 5.398438 -39.617188 5.398438 -35.367188 L 5.398438 -25.722656 C 5.398438 -21.472656 4.707031 -18.945312 0.6875 -15.960938 C -0.460938 -15.042969 0 -13.550781 1.148438 -13.550781 Z M 8.613281 -55.234375 C 13.320312 -55.234375 17.914062 -59.023438 18.945312 -63.617188 C 19.980469 -68.324219 16.996094 -72 12.402344 -72 C 7.695312 -72 3.101562 -68.324219 2.066406 -63.617188 C 1.035156 -59.023438 4.019531 -55.234375 8.613281 -55.234375 Z M 8.613281 -55.234375 "/></g></g></g><g fill="#62b6cb" fill-opacity="1"><g transform="translate(270.282989, 220.896207)"><g><path d="M 25.148438 -16.421875 C 20.898438 -19.636719 18.601562 -47.195312 22.621094 -69.128906 C 22.851562 -70.621094 23.882812 -72.574219 21.472656 -72 C 17.222656 -71.195312 12.171875 -63.617188 1.148438 -63.617188 C 0 -63.617188 -0.460938 -62.238281 0.6875 -61.320312 C 4.707031 -58.332031 5.398438 -55.808594 5.398438 -51.558594 L 5.398438 -25.722656 C 5.398438 -21.472656 4.707031 -18.945312 0.6875 -15.960938 C -0.460938 -15.042969 0 -13.550781 1.148438 -13.550781 L 23.882812 -13.550781 C 26.410156 -13.550781 26.296875 -15.503906 25.148438 -16.421875 Z M 25.148438 -16.421875 "/></g></g></g><g fill="#62b6cb" fill-opacity="1"><g transform="translate(297.038068, 220.896207)"><g><path d="M 23.539062 -13.550781 C 25.953125 -13.550781 25.953125 -15.503906 24.6875 -16.421875 C 20.441406 -19.636719 19.0625 -32.613281 22.164062 -53.050781 C 22.390625 -54.542969 23.539062 -56.382812 21.128906 -55.921875 C 16.765625 -55.003906 12.171875 -47.539062 1.148438 -47.539062 C 0 -47.539062 -0.460938 -46.160156 0.6875 -45.242188 C 4.707031 -42.144531 5.398438 -39.617188 5.398438 -35.367188 L 5.398438 -25.722656 C 5.398438 -21.472656 4.707031 -18.945312 0.6875 -15.960938 C -0.460938 -15.042969 0 -13.550781 1.148438 -13.550781 Z M 8.613281 -55.234375 C 13.320312 -55.234375 17.914062 -59.023438 18.945312 -63.617188 C 19.980469 -68.324219 16.996094 -72 12.402344 -72 C 7.695312 -72 3.101562 -68.324219 2.066406 -63.617188 C 1.035156 -59.023438 4.019531 -55.234375 8.613281 -55.234375 Z M 8.613281 -55.234375 "/></g></g></g><g fill="#62b6cb" fill-opacity="1"><g transform="translate(324.252473, 220.896207)"><g><path d="M 22.964844 -56.035156 C 10.21875 -56.035156 0 -46.507812 0 -34.792969 C 0 -23.082031 10.21875 -13.550781 22.964844 -13.550781 C 35.597656 -13.550781 45.816406 -23.082031 45.816406 -34.792969 C 45.816406 -46.507812 35.597656 -56.035156 22.964844 -56.035156 Z M 22.964844 -16.765625 C 19.292969 -16.765625 16.304688 -24.917969 16.304688 -34.792969 C 16.304688 -44.785156 19.292969 -52.820312 22.964844 -52.820312 C 26.527344 -52.820312 29.511719 -44.785156 29.511719 -34.792969 C 29.511719 -24.917969 26.527344 -16.765625 22.964844 -16.765625 Z M 22.964844 -16.765625 "/></g></g></g><g fill="#85bdbf" fill-opacity="1"><g transform="translate(15.470615, 219.10195)"><g><path d="M 81.644531 -15.960938 C 77.738281 -18.945312 76.9375 -21.472656 76.9375 -25.722656 L 76.9375 -33.300781 C 76.9375 -45.933594 69.355469 -56.035156 58.792969 -56.035156 C 52.363281 -56.035156 48.457031 -49.722656 46.507812 -44.09375 C 43.519531 -51.214844 37.664062 -56.035156 30.429688 -56.035156 C 26.640625 -56.035156 23.882812 -53.167969 21.703125 -49.492188 L 22.164062 -53.050781 C 22.390625 -54.542969 23.539062 -56.382812 21.128906 -55.921875 C 16.765625 -55.003906 12.171875 -47.539062 1.148438 -47.539062 C 0 -47.539062 -0.460938 -46.160156 0.6875 -45.242188 C 4.707031 -42.144531 5.398438 -39.617188 5.398438 -35.367188 L 5.398438 -25.722656 C 5.398438 -21.472656 4.707031 -18.945312 0.6875 -15.960938 C -0.460938 -15.042969 0 -13.550781 1.148438 -13.550781 L 23.539062 -13.550781 C 25.953125 -13.550781 25.953125 -15.503906 24.6875 -16.421875 C 21.472656 -18.832031 19.867188 -26.871094 20.667969 -39.386719 C 22.277344 -44.667969 24.230469 -49.722656 26.527344 -49.722656 C 33.988281 -49.722656 36.171875 -23.082031 28.824219 -16.421875 C 27.675781 -15.386719 27.558594 -13.550781 29.96875 -13.550781 L 52.820312 -13.550781 C 53.96875 -13.550781 54.429688 -15.042969 53.28125 -15.960938 C 49.261719 -18.945312 48.574219 -21.472656 48.574219 -25.722656 L 48.574219 -33.300781 C 48.574219 -35.023438 48.457031 -36.628906 48.113281 -38.238281 C 49.835938 -44.785156 52.476562 -49.722656 55.347656 -49.722656 C 62.695312 -49.722656 64.648438 -23.082031 57.300781 -16.421875 C 56.152344 -15.386719 56.035156 -13.550781 58.449219 -13.550781 L 81.300781 -13.550781 C 82.449219 -13.550781 82.90625 -15.042969 81.644531 -15.960938 Z M 81.644531 -15.960938 "/></g></g></g><g fill="#85bdbf" fill-opacity="1"><g transform="translate(99.065967, 219.10195)"><g><path d="M 46.046875 -15.960938 C 42.027344 -18.945312 41.339844 -21.472656 41.339844 -25.722656 L 41.339844 -35.136719 C 41.339844 -47.539062 32.039062 -56.035156 19.75 -56.035156 C 9.1875 -56.035156 3.445312 -50.753906 3.445312 -45.816406 C 3.445312 -39.15625 20.667969 -41.453125 18.257812 -47.082031 C 16.878906 -50.066406 16.878906 -52.820312 18.601562 -52.820312 C 22.738281 -52.820312 25.261719 -45.242188 25.261719 -38.582031 L 25.261719 -35.136719 C 22.738281 -38.46875 18.601562 -40.648438 14.007812 -40.648438 C 6.316406 -40.648438 0 -34.5625 0 -27.101562 C 0 -19.636719 6.316406 -13.550781 14.007812 -13.550781 C 18.601562 -13.550781 22.738281 -15.730469 25.261719 -19.0625 C 25.261719 -19.0625 27.675781 -13.550781 33.875 -13.550781 L 45.585938 -13.550781 C 46.851562 -13.550781 47.195312 -15.042969 46.046875 -15.960938 Z M 19.0625 -19.75 C 15.960938 -19.75 13.433594 -23.082031 13.433594 -27.101562 C 13.433594 -31.117188 15.960938 -34.449219 19.0625 -34.449219 C 22.277344 -34.449219 24.804688 -31.117188 24.804688 -27.101562 C 24.804688 -23.082031 22.277344 -19.75 19.0625 -19.75 Z M 19.0625 -19.75 "/></g></g></g><g fill="#85bdbf" fill-opacity="1"><g transform="translate(147.179216, 219.10195)"><g><path d="M 44.210938 -56.035156 L 16.535156 -56.035156 C 9.300781 -56.035156 2.183594 -52.707031 0.460938 -47.65625 C -3.214844 -37.320312 16.191406 -38.351562 15.15625 -45.585938 C 14.46875 -50.871094 19.75 -53.96875 21.472656 -52.363281 C 25.261719 -48.804688 9.761719 -19.636719 4.707031 -16.421875 C 3.101562 -15.386719 2.984375 -13.550781 5.398438 -13.550781 L 40.304688 -13.550781 C 42.488281 -13.550781 43.519531 -14.46875 43.519531 -16.765625 L 43.519531 -26.753906 C 43.519531 -28.019531 42.027344 -28.363281 41.109375 -27.214844 C 38.125 -23.308594 35.023438 -16.765625 27.902344 -16.765625 L 25.953125 -16.765625 C 32.839844 -24.804688 37.777344 -48.917969 44.210938 -53.167969 C 45.703125 -54.199219 46.621094 -56.035156 44.210938 -56.035156 Z M 44.210938 -56.035156 "/></g></g></g><g fill="#85bdbf" fill-opacity="1"><g transform="translate(193.570034, 219.10195)"><g><path d="M 44.210938 -56.035156 L 16.535156 -56.035156 C 9.300781 -56.035156 2.183594 -52.707031 0.460938 -47.65625 C -3.214844 -37.320312 16.191406 -38.351562 15.15625 -45.585938 C 14.46875 -50.871094 19.75 -53.96875 21.472656 -52.363281 C 25.261719 -48.804688 9.761719 -19.636719 4.707031 -16.421875 C 3.101562 -15.386719 2.984375 -13.550781 5.398438 -13.550781 L 40.304688 -13.550781 C 42.488281 -13.550781 43.519531 -14.46875 43.519531 -16.765625 L 43.519531 -26.753906 C 43.519531 -28.019531 42.027344 -28.363281 41.109375 -27.214844 C 38.125 -23.308594 35.023438 -16.765625 27.902344 -16.765625 L 25.953125 -16.765625 C 32.839844 -24.804688 37.777344 -48.917969 44.210938 -53.167969 C 45.703125 -54.199219 46.621094 -56.035156 44.210938 -56.035156 Z M 44.210938 -56.035156 "/></g></g></g><g fill="#85bdbf" fill-opacity="1"><g transform="translate(239.960851, 219.10195)"><g><path d="M 23.539062 -13.550781 C 25.953125 -13.550781 25.953125 -15.503906 24.6875 -16.421875 C 20.441406 -19.636719 19.0625 -32.613281 22.164062 -53.050781 C 22.390625 -54.542969 23.539062 -56.382812 21.128906 -55.921875 C 16.765625 -55.003906 12.171875 -47.539062 1.148438 -47.539062 C 0 -47.539062 -0.460938 -46.160156 0.6875 -45.242188 C 4.707031 -42.144531 5.398438 -39.617188 5.398438 -35.367188 L 5.398438 -25.722656 C 5.398438 -21.472656 4.707031 -18.945312 0.6875 -15.960938 C -0.460938 -15.042969 0 -13.550781 1.148438 -13.550781 Z M 8.613281 -55.234375 C 13.320312 -55.234375 17.914062 -59.023438 18.945312 -63.617188 C 19.980469 -68.324219 16.996094 -72 12.402344 -72 C 7.695312 -72 3.101562 -68.324219 2.066406 -63.617188 C 1.035156 -59.023438 4.019531 -55.234375 8.613281 -55.234375 Z M 8.613281 -55.234375 "/></g></g></g><g fill="#85bdbf" fill-opacity="1"><g transform="translate(267.175256, 219.10195)"><g><path d="M 25.148438 -16.421875 C 20.898438 -19.636719 18.601562 -47.195312 22.621094 -69.128906 C 22.851562 -70.621094 23.882812 -72.574219 21.472656 -72 C 17.222656 -71.195312 12.171875 -63.617188 1.148438 -63.617188 C 0 -63.617188 -0.460938 -62.238281 0.6875 -61.320312 C 4.707031 -58.332031 5.398438 -55.808594 5.398438 -51.558594 L 5.398438 -25.722656 C 5.398438 -21.472656 4.707031 -18.945312 0.6875 -15.960938 C -0.460938 -15.042969 0 -13.550781 1.148438 -13.550781 L 23.882812 -13.550781 C 26.410156 -13.550781 26.296875 -15.503906 25.148438 -16.421875 Z M 25.148438 -16.421875 "/></g></g></g><g fill="#85bdbf" fill-opacity="1"><g transform="translate(293.930335, 219.10195)"><g><path d="M 23.539062 -13.550781 C 25.953125 -13.550781 25.953125 -15.503906 24.6875 -16.421875 C 20.441406 -19.636719 19.0625 -32.613281 22.164062 -53.050781 C 22.390625 -54.542969 23.539062 -56.382812 21.128906 -55.921875 C 16.765625 -55.003906 12.171875 -47.539062 1.148438 -47.539062 C 0 -47.539062 -0.460938 -46.160156 0.6875 -45.242188 C 4.707031 -42.144531 5.398438 -39.617188 5.398438 -35.367188 L 5.398438 -25.722656 C 5.398438 -21.472656 4.707031 -18.945312 0.6875 -15.960938 C -0.460938 -15.042969 0 -13.550781 1.148438 -13.550781 Z M 8.613281 -55.234375 C 13.320312 -55.234375 17.914062 -59.023438 18.945312 -63.617188 C 19.980469 -68.324219 16.996094 -72 12.402344 -72 C 7.695312 -72 3.101562 -68.324219 2.066406 -63.617188 C 1.035156 -59.023438 4.019531 -55.234375 8.613281 -55.234375 Z M 8.613281 -55.234375 "/></g></g></g><g fill="#85bdbf" fill-opacity="1"><g transform="translate(321.14474, 219.10195)"><g><path d="M 22.964844 -56.035156 C 10.21875 -56.035156 0 -46.507812 0 -34.792969 C 0 -23.082031 10.21875 -13.550781 22.964844 -13.550781 C 35.597656 -13.550781 45.816406 -23.082031 45.816406 -34.792969 C 45.816406 -46.507812 35.597656 -56.035156 22.964844 -56.035156 Z M 22.964844 -16.765625 C 19.292969 -16.765625 16.304688 -24.917969 16.304688 -34.792969 C 16.304688 -44.785156 19.292969 -52.820312 22.964844 -52.820312 C 26.527344 -52.820312 29.511719 -44.785156 29.511719 -34.792969 C 29.511719 -24.917969 26.527344 -16.765625 22.964844 -16.765625 Z M 22.964844 -16.765625 "/></g></g></g></svg>