<svg xmlns="http://www.w3.org/2000/svg" xmlns:xlink="http://www.w3.org/1999/xlink" width="500" zoomAndPan="magnify" viewBox="0 0 375 374.999991" height="500" preserveAspectRatio="xMidYMid meet" version="1.0"><defs><g/><clipPath id="07513e1ba3"><path d="M 1.109375 256.5 L 46.859375 256.5 L 46.859375 302.25 L 1.109375 302.25 Z M 1.109375 256.5 " clip-rule="nonzero"/></clipPath><clipPath id="fcead175a1"><path d="M 161.019531 306.402344 L 191.769531 306.402344 L 191.769531 337.152344 L 161.019531 337.152344 Z M 161.019531 306.402344 " clip-rule="nonzero"/></clipPath><clipPath id="a630927cd1"><path d="M 137.996094 12.246094 L 183.746094 12.246094 L 183.746094 57.996094 L 137.996094 57.996094 Z M 137.996094 12.246094 " clip-rule="nonzero"/></clipPath><clipPath id="594ef71bac"><path d="M 227.710938 103.210938 L 258.460938 103.210938 L 258.460938 133.960938 L 227.710938 133.960938 Z M 227.710938 103.210938 " clip-rule="nonzero"/></clipPath><clipPath id="e84cb1884f"><path d="M 119.425781 169.941406 L 142.675781 169.941406 L 142.675781 193.191406 L 119.425781 193.191406 Z M 119.425781 169.941406 " clip-rule="nonzero"/></clipPath><clipPath id="6db8c047e1"><path d="M 299.960938 26.898438 L 330.710938 26.898438 L 330.710938 57.648438 L 299.960938 57.648438 Z M 299.960938 26.898438 " clip-rule="nonzero"/></clipPath><clipPath id="76f89504d8"><path d="M 321.949219 315.089844 L 352.699219 315.089844 L 352.699219 345.839844 L 321.949219 345.839844 Z M 321.949219 315.089844 " clip-rule="nonzero"/></clipPath><clipPath id="cd85f29125"><path d="M 31.023438 33.054688 L 61.773438 33.054688 L 61.773438 63.804688 L 31.023438 63.804688 Z M 31.023438 33.054688 " clip-rule="nonzero"/></clipPath></defs><g fill="#62b6cb" fill-opacity="1"><g transform="translate(28.543574, 324.52201)"><g><path d="M 340.074219 -66.484375 C 323.8125 -78.921875 320.464844 -89.441406 320.464844 -107.140625 L 320.464844 -138.707031 C 320.464844 -191.320312 288.894531 -233.414062 244.890625 -233.414062 C 218.105469 -233.414062 201.84375 -207.105469 193.714844 -183.667969 C 181.277344 -213.324219 156.882812 -233.414062 126.75 -233.414062 C 110.964844 -233.414062 99.488281 -221.457031 90.398438 -206.148438 L 92.3125 -220.976562 C 93.269531 -227.195312 98.050781 -234.847656 88.007812 -232.933594 C 69.832031 -229.109375 50.699219 -198.019531 4.78125 -198.019531 C 0 -198.019531 -1.914062 -192.277344 2.871094 -188.453125 C 19.609375 -175.539062 22.480469 -165.015625 22.480469 -147.316406 L 22.480469 -107.140625 C 22.480469 -89.441406 19.609375 -78.921875 2.871094 -66.484375 C -1.914062 -62.65625 0 -56.441406 4.78125 -56.441406 L 98.050781 -56.441406 C 108.097656 -56.441406 108.097656 -64.570312 102.835938 -68.398438 C 89.441406 -78.441406 82.746094 -111.921875 86.09375 -164.058594 C 92.792969 -186.0625 100.921875 -207.105469 110.488281 -207.105469 C 141.578125 -207.105469 150.667969 -96.140625 120.054688 -68.398438 C 115.273438 -64.09375 114.792969 -56.441406 124.835938 -56.441406 L 220.019531 -56.441406 C 224.804688 -56.441406 226.714844 -62.65625 221.933594 -66.484375 C 205.191406 -78.921875 202.324219 -89.441406 202.324219 -107.140625 L 202.324219 -138.707031 C 202.324219 -145.882812 201.84375 -152.578125 200.410156 -159.277344 C 207.585938 -186.539062 218.585938 -207.105469 230.542969 -207.105469 C 261.15625 -207.105469 269.285156 -96.140625 238.675781 -68.398438 C 233.890625 -64.09375 233.414062 -56.441406 243.457031 -56.441406 L 338.640625 -56.441406 C 343.421875 -56.441406 345.335938 -62.65625 340.074219 -66.484375 Z M 340.074219 -66.484375 "/></g></g></g><g fill="#e3e6e0" fill-opacity="1"><g transform="translate(15.598844, 317.048366)"><g><path d="M 340.074219 -66.484375 C 323.8125 -78.921875 320.464844 -89.441406 320.464844 -107.140625 L 320.464844 -138.707031 C 320.464844 -191.320312 288.894531 -233.414062 244.890625 -233.414062 C 218.105469 -233.414062 201.84375 -207.105469 193.714844 -183.667969 C 181.277344 -213.324219 156.882812 -233.414062 126.75 -233.414062 C 110.964844 -233.414062 99.488281 -221.457031 90.398438 -206.148438 L 92.3125 -220.976562 C 93.269531 -227.195312 98.050781 -234.847656 88.007812 -232.933594 C 69.832031 -229.109375 50.699219 -198.019531 4.78125 -198.019531 C 0 -198.019531 -1.914062 -192.277344 2.871094 -188.453125 C 19.609375 -175.539062 22.480469 -165.015625 22.480469 -147.316406 L 22.480469 -107.140625 C 22.480469 -89.441406 19.609375 -78.921875 2.871094 -66.484375 C -1.914062 -62.65625 0 -56.441406 4.78125 -56.441406 L 98.050781 -56.441406 C 108.097656 -56.441406 108.097656 -64.570312 102.835938 -68.398438 C 89.441406 -78.441406 82.746094 -111.921875 86.09375 -164.058594 C 92.792969 -186.0625 100.921875 -207.105469 110.488281 -207.105469 C 141.578125 -207.105469 150.667969 -96.140625 120.054688 -68.398438 C 115.273438 -64.09375 114.792969 -56.441406 124.835938 -56.441406 L 220.019531 -56.441406 C 224.804688 -56.441406 226.714844 -62.65625 221.933594 -66.484375 C 205.191406 -78.921875 202.324219 -89.441406 202.324219 -107.140625 L 202.324219 -138.707031 C 202.324219 -145.882812 201.84375 -152.578125 200.410156 -159.277344 C 207.585938 -186.539062 218.585938 -207.105469 230.542969 -207.105469 C 261.15625 -207.105469 269.285156 -96.140625 238.675781 -68.398438 C 233.890625 -64.09375 233.414062 -56.441406 243.457031 -56.441406 L 338.640625 -56.441406 C 343.421875 -56.441406 345.335938 -62.65625 340.074219 -66.484375 Z M 340.074219 -66.484375 "/></g></g></g><g clip-path="url(#07513e1ba3)"><path fill="#fbfaf9" d="M 46.871094 279.378906 C 30.820312 283.152344 27.765625 286.210938 23.988281 302.261719 C 20.21875 286.210938 17.15625 283.152344 1.109375 279.378906 C 17.15625 275.605469 20.21875 272.542969 23.988281 256.5 C 27.765625 272.542969 30.820312 275.605469 46.871094 279.378906 Z M 46.871094 279.378906 " fill-opacity="1" fill-rule="nonzero"/></g><g clip-path="url(#fcead175a1)"><path fill="#62b6cb" d="M 191.777344 321.777344 C 180.988281 324.316406 178.933594 326.371094 176.398438 337.15625 C 173.863281 326.371094 171.804688 324.316406 161.019531 321.777344 C 171.804688 319.242188 173.863281 317.183594 176.398438 306.402344 C 178.933594 317.183594 180.988281 319.242188 191.777344 321.777344 Z M 191.777344 321.777344 " fill-opacity="1" fill-rule="nonzero"/></g><g clip-path="url(#a630927cd1)"><path fill="#fbfaf9" d="M 137.984375 35.117188 C 154.035156 31.339844 157.089844 28.28125 160.867188 12.234375 C 164.636719 28.28125 167.699219 31.339844 183.746094 35.117188 C 167.699219 38.890625 164.636719 41.949219 160.867188 57.996094 C 157.089844 41.949219 154.035156 38.890625 137.984375 35.117188 Z M 137.984375 35.117188 " fill-opacity="1" fill-rule="nonzero"/></g><g clip-path="url(#594ef71bac)"><path fill="#fbfaf9" d="M 227.703125 118.585938 C 238.488281 116.046875 240.542969 113.992188 243.082031 103.207031 C 245.617188 113.992188 247.675781 116.046875 258.460938 118.585938 C 247.675781 121.121094 245.617188 123.179688 243.082031 133.960938 C 240.542969 123.179688 238.488281 121.121094 227.703125 118.585938 Z M 227.703125 118.585938 " fill-opacity="1" fill-rule="nonzero"/></g><g clip-path="url(#e84cb1884f)"><path fill="#62b6cb" d="M 119.421875 181.566406 C 127.578125 179.648438 129.132812 178.09375 131.050781 169.9375 C 132.96875 178.09375 134.523438 179.648438 142.675781 181.566406 C 134.523438 183.484375 132.96875 185.039062 131.050781 193.191406 C 129.132812 185.039062 127.578125 183.484375 119.421875 181.566406 Z M 119.421875 181.566406 " fill-opacity="1" fill-rule="nonzero"/></g><g clip-path="url(#6db8c047e1)"><path fill="#85bdbf" d="M 330.714844 42.277344 C 319.929688 44.816406 317.875 46.871094 315.335938 57.65625 C 312.800781 46.871094 310.742188 44.816406 299.960938 42.277344 C 310.742188 39.738281 312.800781 37.683594 315.335938 26.898438 C 317.875 37.683594 319.929688 39.738281 330.714844 42.277344 Z M 330.714844 42.277344 " fill-opacity="1" fill-rule="nonzero"/></g><g clip-path="url(#76f89504d8)"><path fill="#fbfaf9" d="M 352.707031 330.46875 C 341.921875 333.007812 339.867188 335.0625 337.328125 345.847656 C 334.792969 335.0625 332.734375 333.007812 321.949219 330.46875 C 332.734375 327.929688 334.792969 325.875 337.328125 315.089844 C 339.867188 325.875 341.921875 327.929688 352.707031 330.46875 Z M 352.707031 330.46875 " fill-opacity="1" fill-rule="nonzero"/></g><g clip-path="url(#cd85f29125)"><path fill="#85bdbf" d="M 61.78125 48.429688 C 50.992188 50.96875 48.9375 53.023438 46.402344 63.808594 C 43.867188 53.023438 41.808594 50.96875 31.023438 48.429688 C 41.808594 45.894531 43.867188 43.835938 46.402344 33.054688 C 48.9375 43.835938 50.992188 45.894531 61.78125 48.429688 Z M 61.78125 48.429688 " fill-opacity="1" fill-rule="nonzero"/></g></svg>